<?xml version="1.0" encoding="UTF-8" standalone="no"?>
<!DOCTYPE svg PUBLIC "-//W3C//DTD SVG 1.1//EN" "http://www.w3.org/Graphics/SVG/1.1/DTD/svg11.dtd">
<svg version="1.1" xmlns="http://www.w3.org/2000/svg" xmlns:xlink="http://www.w3.org/1999/xlink" preserveAspectRatio="xMidYMid meet" viewBox="0 0 640 640" width="640" height="640"><defs><path d="M429.52 181.02C429.52 107.55 413.42 48 320 48C226.57 48 210.47 107.55 210.47 181.02C210.48 254.49 259.51 314.05 320 314.05C380.49 314.05 429.52 254.49 429.52 181.02Z" id="iE7tzCr7X"></path><path d="M379.98 324.26C379.98 324.26 361.97 347.2 320 347.2C278.04 347.2 260.03 324.26 260.03 324.26C133.52 347.09 115.78 383.02 113.45 507.64C113.26 517.81 113.17 518.35 113.14 517.17C113.15 519.38 113.16 523.47 113.16 530.61C113.16 530.61 143.61 592 320 592C496.4 592 526.86 530.61 526.86 530.61C526.86 526.03 526.86 522.84 526.86 520.67C526.83 521.4 526.76 519.98 526.63 511.8C524.6 383.81 507.89 347.34 379.98 324.26Z" id="aiNVyTYtf"></path><path d="M560.95 182.26C560.95 122.59 547.87 74.21 471.99 74.21C459.23 74.21 448.25 75.59 438.8 78.15C456.33 110.46 458.73 149.7 458.73 181.02C458.73 216.49 449.11 250.35 431.41 278.39C443.58 285.99 457.37 290.3 471.99 290.3C521.12 290.3 560.95 241.93 560.95 182.26Z" id="a2q24Ir0T9"></path><path d="M520.7 298.59C520.7 298.59 506.08 317.22 471.99 317.22C470.58 317.22 469.21 317.18 467.87 317.12C489.53 326.88 509.23 340.48 523.74 360.37C548.82 394.77 554.59 440.97 555.78 508.84C625.67 495.03 639.99 466.19 639.99 466.19C639.99 462.43 639.99 459.85 640 458.09C639.97 458.71 639.91 457.6 639.81 450.9C638.16 346.96 624.59 317.34 520.7 298.59Z" id="bWl278Z72"></path><path d="M208.59 278.39C190.89 250.35 181.27 216.49 181.27 181.02C181.27 149.7 183.67 110.46 201.2 78.15C191.75 75.59 180.77 74.21 168 74.21C92.13 74.21 79.05 122.59 79.05 182.26C79.05 241.93 118.88 290.3 168 290.3C182.63 290.3 196.42 285.99 208.59 278.39Z" id="bjpnq87WK"></path><path d="M168 317.22C133.92 317.22 119.3 298.59 119.3 298.59C15.41 317.34 1.83 346.95 0.19 450.9C0.08 457.6 0.03 458.71 0 458.09C0 459.85 0.01 462.43 0.01 466.19C0.01 466.19 14.33 495.03 84.22 508.84C85.41 440.97 91.18 394.76 116.26 360.37C130.77 340.48 150.47 326.88 172.13 317.12C170.78 317.18 169.42 317.22 168 317.22Z" id="dQ4vlIt8"></path></defs><g><g><g><use xlink:href="#iE7tzCr7X" opacity="1" fill="#ffffff" fill-opacity="1"></use><g><use xlink:href="#iE7tzCr7X" opacity="1" fill-opacity="0" stroke="#000000" stroke-width="1" stroke-opacity="0"></use></g></g><g><use xlink:href="#aiNVyTYtf" opacity="1" fill="#ffffff" fill-opacity="1"></use><g><use xlink:href="#aiNVyTYtf" opacity="1" fill-opacity="0" stroke="#000000" stroke-width="1" stroke-opacity="0"></use></g></g><g><use xlink:href="#a2q24Ir0T9" opacity="1" fill="#ffffff" fill-opacity="1"></use><g><use xlink:href="#a2q24Ir0T9" opacity="1" fill-opacity="0" stroke="#000000" stroke-width="1" stroke-opacity="0"></use></g></g><g><use xlink:href="#bWl278Z72" opacity="1" fill="#ffffff" fill-opacity="1"></use><g><use xlink:href="#bWl278Z72" opacity="1" fill-opacity="0" stroke="#000000" stroke-width="1" stroke-opacity="0"></use></g></g><g><use xlink:href="#bjpnq87WK" opacity="1" fill="#ffffff" fill-opacity="1"></use><g><use xlink:href="#bjpnq87WK" opacity="1" fill-opacity="0" stroke="#000000" stroke-width="1" stroke-opacity="0"></use></g></g><g><use xlink:href="#dQ4vlIt8" opacity="1" fill="#ffffff" fill-opacity="1"></use><g><use xlink:href="#dQ4vlIt8" opacity="1" fill-opacity="0" stroke="#000000" stroke-width="1" stroke-opacity="0"></use></g></g></g></g></svg>