<?xml version="1.0" encoding="UTF-8" standalone="no"?>
<!DOCTYPE svg PUBLIC "-//W3C//DTD SVG 1.1//EN" "http://www.w3.org/Graphics/SVG/1.1/DTD/svg11.dtd">
<svg version="1.1" xmlns="http://www.w3.org/2000/svg" xmlns:xlink="http://www.w3.org/1999/xlink" preserveAspectRatio="xMidYMid meet" viewBox="0 0 640 640" width="640" height="640"><defs><path d="M429.52 181.02C429.52 107.55 413.42 48 320 48C226.57 48 210.47 107.55 210.47 181.02C210.48 254.49 259.51 314.05 320 314.05C380.49 314.05 429.52 254.49 429.52 181.02Z" id="a68HXVN4N7"></path><path d="M379.98 324.26C379.98 324.26 361.97 347.2 320 347.2C278.04 347.2 260.03 324.26 260.03 324.26C133.52 347.09 115.78 383.02 113.45 507.64C113.26 517.81 113.17 518.35 113.14 517.17C113.15 519.38 113.16 523.47 113.16 530.61C113.16 530.61 143.61 592 320 592C496.4 592 526.86 530.61 526.86 530.61C526.86 526.03 526.86 522.84 526.86 520.67C526.83 521.4 526.76 519.98 526.63 511.8C524.6 383.81 507.89 347.34 379.98 324.26Z" id="i4ShXWs33"></path></defs><g><g><g><use xlink:href="#a68HXVN4N7" opacity="1" fill="#000000" fill-opacity="1"></use><g><use xlink:href="#a68HXVN4N7" opacity="1" fill-opacity="0" stroke="#000000" stroke-width="1" stroke-opacity="0"></use></g></g><g><use xlink:href="#i4ShXWs33" opacity="1" fill="#000000" fill-opacity="1"></use><g><use xlink:href="#i4ShXWs33" opacity="1" fill-opacity="0" stroke="#000000" stroke-width="1" stroke-opacity="0"></use></g></g></g></g></svg>