<?xml version="1.0" encoding="UTF-8" standalone="no"?>
<!DOCTYPE svg PUBLIC "-//W3C//DTD SVG 1.1//EN" "http://www.w3.org/Graphics/SVG/1.1/DTD/svg11.dtd">
<svg version="1.1" xmlns="http://www.w3.org/2000/svg" xmlns:xlink="http://www.w3.org/1999/xlink" preserveAspectRatio="xMidYMid meet" viewBox="0 0 640 640" width="640" height="640"><defs><path d="M374.78 40.25C228.54 40.25 109.56 140.03 109.56 262.67C109.56 385.31 228.54 485.09 374.78 485.09C387.08 485.09 399.41 484.38 411.55 482.97C467.87 518.75 509.46 538.34 535.23 541.2C536.12 541.3 537.03 541.35 537.91 541.35C546.19 541.35 553.85 537.22 558.41 530.31C563.51 522.57 563.85 512.75 559.3 504.74C559.09 504.35 539.2 468.07 544.94 433.4C605.45 391.06 640 329.18 640 262.67C640 140.02 521.02 40.25 374.78 40.25ZM263.46 256.97C263.46 235.27 281.05 217.68 302.75 217.68C324.45 217.68 342.04 235.27 342.04 256.97C342.04 278.67 324.45 296.26 302.75 296.26C281.05 296.26 263.46 278.67 263.46 256.97ZM407.52 256.97C407.52 235.27 425.11 217.68 446.81 217.68C468.51 217.68 486.1 235.27 486.1 256.97C486.1 278.67 468.51 296.26 446.81 296.26C425.11 296.26 407.52 278.67 407.52 256.97Z" id="a278WPpcUA"></path><path d="M103.94 364.81C88.56 334.75 80.76 302.77 80.76 269.77C80.76 236.76 88.56 204.79 103.94 174.73C105.12 172.43 106.35 170.16 107.6 167.89C42.65 205.11 0 267.22 0 337.44C0 400.52 33.98 459.01 93.35 498.35C104.31 541.46 78.87 587.06 78.6 587.53C77.08 590.2 77.2 593.5 78.89 596.07C80.41 598.38 82.99 599.75 85.72 599.75C86.02 599.75 86.32 599.73 86.63 599.7C116.33 596.4 168.63 566.21 208.26 540.76C221.6 542.57 235.24 543.49 248.85 543.49C300.91 543.49 349.27 530.18 389.26 507.46C380.33 508.18 371.33 508.56 362.35 508.56C288.38 508.56 218.5 484.43 165.59 440.62C139.27 418.83 118.53 393.32 103.94 364.81Z" id="a21x4CEmtY"></path></defs><g><g><g><use xlink:href="#a278WPpcUA" opacity="1" fill="#ffffff" fill-opacity="1"></use><g><use xlink:href="#a278WPpcUA" opacity="1" fill-opacity="0" stroke="#000000" stroke-width="1" stroke-opacity="0"></use></g></g><g><use xlink:href="#a21x4CEmtY" opacity="1" fill="#ffffff" fill-opacity="1"></use><g><use xlink:href="#a21x4CEmtY" opacity="1" fill-opacity="0" stroke="#000000" stroke-width="1" stroke-opacity="0"></use></g></g></g></g></svg>