<?xml version="1.0" encoding="UTF-8" standalone="no"?>
<!DOCTYPE svg PUBLIC "-//W3C//DTD SVG 1.1//EN" "http://www.w3.org/Graphics/SVG/1.1/DTD/svg11.dtd">
<svg version="1.1" xmlns="http://www.w3.org/2000/svg" xmlns:xlink="http://www.w3.org/1999/xlink" preserveAspectRatio="xMidYMid meet" viewBox="0 0 640 640" width="640" height="640"><defs><path d="M425.36 240.8C435.93 245.73 447.66 248.57 460.09 248.57C505.48 248.57 542.27 211.78 542.27 166.4C542.27 121 505.48 84.21 460.09 84.21C415.13 84.22 378.66 120.36 377.97 165.15C403.88 181.4 422.05 208.89 425.36 240.8ZM406.32 251.24C406.32 205.85 369.52 169.06 324.13 169.06C278.75 169.06 241.93 205.86 241.93 251.25C241.93 296.63 278.75 333.42 324.13 333.42C369.53 333.42 406.32 296.62 406.32 251.24ZM289.26 339.03C231.23 339.03 184.03 386.24 184.03 444.26C184.03 449.95 184.03 478.37 184.03 529.54L184.25 530.88C187.77 531.98 189.73 532.6 190.12 532.72C245.49 550.02 293.6 555.79 333.2 555.79C410.54 555.79 455.36 533.74 458.12 532.33C458.49 532.15 460.32 531.22 463.61 529.56L464.2 529.56C464.2 478.38 464.2 449.95 464.2 444.26C464.22 386.24 417.02 339.03 358.99 339.03C345.05 339.03 296.23 339.03 289.26 339.03ZM425.77 254.18C425.02 281.87 413.2 306.8 394.51 324.73C446.08 340.07 483.82 387.89 483.82 444.39C483.82 447.01 483.82 468.04 483.82 470.67C552.14 468.16 591.51 448.8 594.11 447.5C594.48 447.31 596.31 446.38 599.6 444.71L600.19 444.71C600.19 393.53 600.19 365.09 600.19 359.4C600.19 301.39 552.98 254.18 494.97 254.18C481.13 254.18 432.69 254.18 425.77 254.18ZM223.63 235.9C227.66 209.63 241.75 186.67 261.86 171.03C261.95 169.49 262.1 167.97 262.1 166.42C262.1 121.02 225.3 84.23 179.92 84.23C134.52 84.23 97.74 121.02 97.74 166.42C97.74 211.79 134.52 248.59 179.92 248.59C196 248.59 210.96 243.9 223.63 235.9ZM222.49 254.57C219.93 254.39 217.39 254.18 214.77 254.18C207.8 254.18 152.01 254.18 145.04 254.18C87.02 254.18 39.81 301.39 39.81 359.4C39.81 365.09 39.81 393.52 39.81 444.7L40.03 446.02C43.56 447.13 45.51 447.75 45.9 447.87C90.33 461.74 129.97 468.13 164.41 470.14C164.41 467.57 164.41 446.96 164.41 444.39C164.42 387.89 202.14 340.08 253.73 324.73C235.13 306.89 223.35 282.09 222.49 254.57Z" id="d2bgcctJ6"></path></defs><g><g><g><use xlink:href="#d2bgcctJ6" opacity="1" fill="#ffffff" fill-opacity="1"></use><g><use xlink:href="#d2bgcctJ6" opacity="1" fill-opacity="0" stroke="#000000" stroke-width="1" stroke-opacity="0"></use></g></g></g></g></svg>